<svg width="24px" height="24px" viewBox="-102.4 -102.4 1228.80 1228.80" xmlns="http://www.w3.org/2000/svg" style="enable-background:new 0 0 1024 1024" xml:space="preserve" fill="#000000"><g id="SVGRepo_bgCarrier" stroke-width="0" transform="translate(0,0), scale(1)"><rect x="-102.4" y="-102.4" width="1228.80" height="1228.80" rx="614.4" fill="#FFD44A" strokewidth="0"></rect></g><g id="SVGRepo_tracerCarrier" stroke-linecap="round" stroke-linejoin="round" stroke="#CCCCCC" stroke-width="12.288"></g><g id="SVGRepo_iconCarrier"><path d="M928.99 755.83 574.6 203.25c-12.89-20.16-36.76-32.58-62.6-32.58s-49.71 12.43-62.6 32.58L95.01 755.83c-12.91 20.12-12.9 44.91.01 65.03 12.92 20.12 36.78 32.51 62.59 32.49h708.78c25.82.01 49.68-12.37 62.59-32.49 12.91-20.12 12.92-44.91.01-65.03zM554.67 768h-85.33v-85.33h85.33V768zm0-426.67v298.66h-85.33V341.32l85.33.01z" fill="#ffffff"></path></g></svg>